{
    "asset" : {
        "generator" : "Khronos glTF Blender I/O v1.7.33",
        "version" : "2.0"
    },
    "scene" : 0,
    "scenes" : [
        {
            "name" : "Scene",
            "nodes" : [
                3
            ]
        }
    ],
    "nodes" : [
        {
            "mesh" : 0,
            "name" : "Object_1",
            "rotation" : [
                0,
                -0.4799446761608124,
                0,
                0.8772987723350525
            ],
            "scale" : [
                27.172199249267578,
                27.172199249267578,
                27.172199249267578
            ],
            "translation" : [
                3805.640625,
                -38629.26171875,
                90422.1640625
            ]
        },
        {
            "mesh" : 1,
            "name" : "Object_3",
            "rotation" : [
                0,
                -0.4799446761608124,
                0,
                0.8772987723350525
            ],
            "scale" : [
                27.172199249267578,
                27.172199249267578,
                27.172199249267578
            ],
            "translation" : [
                3805.640625,
                -38629.26171875,
                90422.1640625
            ]
        },
        {
            "mesh" : 2,
            "name" : "Object_4",
            "rotation" : [
                0,
                -0.4799446761608124,
                0,
                0.8772987723350525
            ],
            "scale" : [
                27.172199249267578,
                27.172199249267578,
                27.172199249267578
            ],
            "translation" : [
                3805.640625,
                -38629.26171875,
                90422.1640625
            ]
        },
        {
            "children" : [
                0,
                1,
                2
            ],
            "name" : "Default",
            "scale" : [
                0.0010000000474974513,
                0.0010000000474974513,
                0.0010000000474974513
            ]
        }
    ],
    "materials" : [
        {
            "doubleSided" : true,
            "name" : "Material_2",
            "pbrMetallicRoughness" : {
                "baseColorFactor" : [
                    0.9803921580314636,
                    0.9803921580314636,
                    0.9803921580314636,
                    1
                ],
                "roughnessFactor" : 0.5527864098548889
            }
        }
    ],
    "meshes" : [
        {
            "name" : "Object_1",
            "primitives" : [
                {
                    "attributes" : {
                        "POSITION" : 0,
                        "NORMAL" : 1,
                        "TEXCOORD_0" : 2
                    },
                    "indices" : 3,
                    "material" : 0
                }
            ]
        },
        {
            "name" : "Object_3",
            "primitives" : [
                {
                    "attributes" : {
                        "POSITION" : 4,
                        "NORMAL" : 5,
                        "TEXCOORD_0" : 6
                    },
                    "indices" : 3,
                    "material" : 0
                }
            ]
        },
        {
            "name" : "Object_4",
            "primitives" : [
                {
                    "attributes" : {
                        "POSITION" : 7,
                        "NORMAL" : 8,
                        "TEXCOORD_0" : 9
                    },
                    "indices" : 10,
                    "material" : 0
                }
            ]
        }
    ],
    "accessors" : [
        {
            "bufferView" : 0,
            "componentType" : 5126,
            "count" : 24,
            "max" : [
                6822.65478515625,
                636.2305297851562,
                -3036.832275390625
            ],
            "min" : [
                -1536.160400390625,
                534.9447631835938,
                -3146.657958984375
            ],
            "type" : "VEC3"
        },
        {
            "bufferView" : 1,
            "componentType" : 5126,
            "count" : 24,
            "type" : "VEC3"
        },
        {
            "bufferView" : 2,
            "componentType" : 5126,
            "count" : 24,
            "type" : "VEC2"
        },
        {
            "bufferView" : 3,
            "componentType" : 5123,
            "count" : 36,
            "type" : "SCALAR"
        },
        {
            "bufferView" : 4,
            "componentType" : 5126,
            "count" : 24,
            "max" : [
                6823.169921875,
                636.2305297851562,
                -3958.028564453125
            ],
            "min" : [
                -1535.6455078125,
                534.9447631835938,
                -4067.854248046875
            ],
            "type" : "VEC3"
        },
        {
            "bufferView" : 5,
            "componentType" : 5126,
            "count" : 24,
            "type" : "VEC3"
        },
        {
            "bufferView" : 6,
            "componentType" : 5126,
            "count" : 24,
            "type" : "VEC2"
        },
        {
            "bufferView" : 7,
            "componentType" : 5126,
            "count" : 5027,
            "max" : [
                6823.169921875,
                534.9447631835938,
                -3061.533935546875
            ],
            "min" : [
                -1536.160400390625,
                -534.9447631835938,
                -4043.1591796875
            ],
            "type" : "VEC3"
        },
        {
            "bufferView" : 8,
            "componentType" : 5126,
            "count" : 5027,
            "type" : "VEC3"
        },
        {
            "bufferView" : 9,
            "componentType" : 5126,
            "count" : 5027,
            "type" : "VEC2"
        },
        {
            "bufferView" : 10,
            "componentType" : 5123,
            "count" : 25308,
            "type" : "SCALAR"
        }
    ],
    "bufferViews" : [
        {
            "buffer" : 0,
            "byteLength" : 288,
            "byteOffset" : 0
        },
        {
            "buffer" : 0,
            "byteLength" : 288,
            "byteOffset" : 288
        },
        {
            "buffer" : 0,
            "byteLength" : 192,
            "byteOffset" : 576
        },
        {
            "buffer" : 0,
            "byteLength" : 72,
            "byteOffset" : 768
        },
        {
            "buffer" : 0,
            "byteLength" : 288,
            "byteOffset" : 840
        },
        {
            "buffer" : 0,
            "byteLength" : 288,
            "byteOffset" : 1128
        },
        {
            "buffer" : 0,
            "byteLength" : 192,
            "byteOffset" : 1416
        },
        {
            "buffer" : 0,
            "byteLength" : 60324,
            "byteOffset" : 1608
        },
        {
            "buffer" : 0,
            "byteLength" : 60324,
            "byteOffset" : 61932
        },
        {
            "buffer" : 0,
            "byteLength" : 40216,
            "byteOffset" : 122256
        },
        {
            "buffer" : 0,
            "byteLength" : 50616,
            "byteOffset" : 162472
        }
    ],
    "buffers" : [
        {
            "byteLength" : 213088,
            "uri" : "data:application/octet-stream;base64,"
        }
    ]
}
