{
    "asset" : {
        "generator" : "Khronos glTF Blender I/O v1.7.33",
        "version" : "2.0"
    },
    "scene" : 0,
    "scenes" : [
        {
            "name" : "Scene",
            "nodes" : [
                7
            ]
        }
    ],
    "nodes" : [
        {
            "mesh" : 0,
            "name" : "Object_1"
        },
        {
            "mesh" : 1,
            "name" : "Object_2"
        },
        {
            "mesh" : 2,
            "name" : "Object_3"
        },
        {
            "mesh" : 3,
            "name" : "Object_4"
        },
        {
            "mesh" : 4,
            "name" : "Object_5"
        },
        {
            "mesh" : 5,
            "name" : "Object_6"
        },
        {
            "mesh" : 6,
            "name" : "Object_7"
        },
        {
            "children" : [
                0,
                1,
                2,
                3,
                4,
                5,
                6
            ],
            "name" : "Layer0",
            "scale" : [
                0.0010000000474974513,
                0.0010000000474974513,
                0.0010000000474974513
            ]
        }
    ],
    "materials" : [
        {
            "doubleSided" : true,
            "name" : "Metal_Aluminum_Anodized",
            "pbrMetallicRoughness" : {
                "baseColorTexture" : {
                    "index" : 0
                },
                "roughnessFactor" : 0.5527864098548889
            }
        },
        {
            "doubleSided" : true,
            "name" : "*2",
            "pbrMetallicRoughness" : {
                "baseColorFactor" : [
                    0.23529411852359772,
                    0.23529411852359772,
                    0.23529411852359772,
                    1
                ],
                "roughnessFactor" : 0.5527864098548889
            }
        },
        {
            "doubleSided" : true,
            "name" : "*6",
            "pbrMetallicRoughness" : {
                "baseColorFactor" : [
                    0.15294118225574493,
                    0.15294118225574493,
                    0.15294118225574493,
                    1
                ],
                "roughnessFactor" : 0.5527864098548889
            }
        }
    ],
    "meshes" : [
        {
            "name" : "Object_1",
            "primitives" : [
                {
                    "attributes" : {
                        "POSITION" : 0,
                        "NORMAL" : 1,
                        "TEXCOORD_0" : 2
                    },
                    "indices" : 3,
                    "material" : 0
                }
            ]
        },
        {
            "name" : "Object_2",
            "primitives" : [
                {
                    "attributes" : {
                        "POSITION" : 4,
                        "NORMAL" : 5,
                        "TEXCOORD_0" : 6
                    },
                    "indices" : 7,
                    "material" : 0
                }
            ]
        },
        {
            "name" : "Object_3",
            "primitives" : [
                {
                    "attributes" : {
                        "POSITION" : 8,
                        "NORMAL" : 9,
                        "TEXCOORD_0" : 10
                    },
                    "indices" : 11,
                    "material" : 0
                }
            ]
        },
        {
            "name" : "Object_4",
            "primitives" : [
                {
                    "attributes" : {
                        "POSITION" : 12,
                        "NORMAL" : 13,
                        "TEXCOORD_0" : 14
                    },
                    "indices" : 15,
                    "material" : 1
                }
            ]
        },
        {
            "name" : "Object_5",
            "primitives" : [
                {
                    "attributes" : {
                        "POSITION" : 16,
                        "NORMAL" : 17,
                        "TEXCOORD_0" : 18
                    },
                    "indices" : 19,
                    "material" : 2
                }
            ]
        },
        {
            "name" : "Object_6",
            "primitives" : [
                {
                    "attributes" : {
                        "POSITION" : 20,
                        "NORMAL" : 21,
                        "TEXCOORD_0" : 22
                    },
                    "indices" : 23,
                    "material" : 0
                }
            ]
        },
        {
            "name" : "Object_7",
            "primitives" : [
                {
                    "attributes" : {
                        "POSITION" : 24,
                        "NORMAL" : 25,
                        "TEXCOORD_0" : 26
                    },
                    "indices" : 27,
                    "material" : 0
                }
            ]
        }
    ],
    "textures" : [
        {
            "sampler" : 0,
            "source" : 0
        }
    ],
    "images" : [
        {
            "bufferView" : 4,
            "mimeType" : "image/jpeg",
            "name" : "Metal_Aluminum_Anodized"
        }
    ],
    "accessors" : [
        {
            "bufferView" : 0,
            "componentType" : 5126,
            "count" : 66,
            "max" : [
                53.928375244140625,
                201,
                63.51702880859375
            ],
            "min" : [
                -53.271522521972656,
                111,
                -54.168800354003906
            ],
            "type" : "VEC3"
        },
        {
            "bufferView" : 1,
            "componentType" : 5126,
            "count" : 66,
            "type" : "VEC3"
        },
        {
            "bufferView" : 2,
            "componentType" : 5126,
            "count" : 66,
            "type" : "VEC2"
        },
        {
            "bufferView" : 3,
            "componentType" : 5123,
            "count" : 126,
            "type" : "SCALAR"
        },
        {
            "bufferView" : 5,
            "componentType" : 5126,
            "count" : 154,
            "max" : [
                39.69395446777344,
                111,
                39.26114273071289
            ],
            "min" : [
                -40.30604553222656,
                87.72810363769531,
                -40.73885726928711
            ],
            "type" : "VEC3"
        },
        {
            "bufferView" : 6,
            "componentType" : 5126,
            "count" : 154,
            "type" : "VEC3"
        },
        {
            "bufferView" : 7,
            "componentType" : 5126,
            "count" : 154,
            "type" : "VEC2"
        },
        {
            "bufferView" : 8,
            "componentType" : 5123,
            "count" : 324,
            "type" : "SCALAR"
        },
        {
            "bufferView" : 9,
            "componentType" : 5126,
            "count" : 96,
            "max" : [
                53.29390335083008,
                162,
                52.86109161376953
            ],
            "min" : [
                -53.9059944152832,
                -7.670252531793462e-29,
                -54.33880615234375
            ],
            "type" : "VEC3"
        },
        {
            "bufferView" : 10,
            "componentType" : 5126,
            "count" : 96,
            "type" : "VEC3"
        },
        {
            "bufferView" : 11,
            "componentType" : 5126,
            "count" : 96,
            "type" : "VEC2"
        },
        {
            "bufferView" : 12,
            "componentType" : 5123,
            "count" : 180,
            "type" : "SCALAR"
        },
        {
            "bufferView" : 13,
            "componentType" : 5126,
            "count" : 100,
            "max" : [
                7.918426990509033,
                227.66986083984375,
                7.021147727966309
            ],
            "min" : [
                -7.26157283782959,
                210.7993621826172,
                -8.158852577209473
            ],
            "type" : "VEC3"
        },
        {
            "bufferView" : 14,
            "componentType" : 5126,
            "count" : 100,
            "type" : "VEC3"
        },
        {
            "bufferView" : 15,
            "componentType" : 5126,
            "count" : 100,
            "type" : "VEC2"
        },
        {
            "bufferView" : 16,
            "componentType" : 5123,
            "count" : 276,
            "type" : "SCALAR"
        },
        {
            "bufferView" : 17,
            "componentType" : 5126,
            "count" : 1481,
            "max" : [
                -4.926121711730957,
                205.8258819580078,
                -18.553726196289062
            ],
            "min" : [
                -53.693904876708984,
                108.99560546875,
                -88.37740325927734
            ],
            "type" : "VEC3"
        },
        {
            "bufferView" : 18,
            "componentType" : 5126,
            "count" : 1481,
            "type" : "VEC3"
        },
        {
            "bufferView" : 19,
            "componentType" : 5126,
            "count" : 1481,
            "type" : "VEC2"
        },
        {
            "bufferView" : 20,
            "componentType" : 5123,
            "count" : 5988,
            "type" : "SCALAR"
        },
        {
            "bufferView" : 21,
            "componentType" : 5126,
            "count" : 9,
            "max" : [
                53.454345703125,
                213,
                52.55706787109375
            ],
            "min" : [
                -52.79749298095703,
                201,
                -53.69477462768555
            ],
            "type" : "VEC3"
        },
        {
            "bufferView" : 22,
            "componentType" : 5126,
            "count" : 9,
            "type" : "VEC3"
        },
        {
            "bufferView" : 23,
            "componentType" : 5126,
            "count" : 9,
            "type" : "VEC2"
        },
        {
            "bufferView" : 24,
            "componentType" : 5123,
            "count" : 24,
            "type" : "SCALAR"
        },
        {
            "bufferView" : 25,
            "componentType" : 5126,
            "count" : 8,
            "max" : [
                52.81987380981445,
                7.795068440370553e-29,
                52.387062072753906
            ],
            "min" : [
                -53.43196487426758,
                -7.601562434767568e-29,
                -53.86478042602539
            ],
            "type" : "VEC3"
        },
        {
            "bufferView" : 26,
            "componentType" : 5126,
            "count" : 8,
            "type" : "VEC3"
        },
        {
            "bufferView" : 27,
            "componentType" : 5126,
            "count" : 8,
            "type" : "VEC2"
        },
        {
            "bufferView" : 28,
            "componentType" : 5123,
            "count" : 18,
            "type" : "SCALAR"
        }
    ],
    "bufferViews" : [
        {
            "buffer" : 0,
            "byteLength" : 792,
            "byteOffset" : 0
        },
        {
            "buffer" : 0,
            "byteLength" : 792,
            "byteOffset" : 792
        },
        {
            "buffer" : 0,
            "byteLength" : 528,
            "byteOffset" : 1584
        },
        {
            "buffer" : 0,
            "byteLength" : 252,
            "byteOffset" : 2112
        },
        {
            "buffer" : 0,
            "byteLength" : 2508,
            "byteOffset" : 2364
        },
        {
            "buffer" : 0,
            "byteLength" : 1848,
            "byteOffset" : 4872
        },
        {
            "buffer" : 0,
            "byteLength" : 1848,
            "byteOffset" : 6720
        },
        {
            "buffer" : 0,
            "byteLength" : 1232,
            "byteOffset" : 8568
        },
        {
            "buffer" : 0,
            "byteLength" : 648,
            "byteOffset" : 9800
        },
        {
            "buffer" : 0,
            "byteLength" : 1152,
            "byteOffset" : 10448
        },
        {
            "buffer" : 0,
            "byteLength" : 1152,
            "byteOffset" : 11600
        },
        {
            "buffer" : 0,
            "byteLength" : 768,
            "byteOffset" : 12752
        },
        {
            "buffer" : 0,
            "byteLength" : 360,
            "byteOffset" : 13520
        },
        {
            "buffer" : 0,
            "byteLength" : 1200,
            "byteOffset" : 13880
        },
        {
            "buffer" : 0,
            "byteLength" : 1200,
            "byteOffset" : 15080
        },
        {
            "buffer" : 0,
            "byteLength" : 800,
            "byteOffset" : 16280
        },
        {
            "buffer" : 0,
            "byteLength" : 552,
            "byteOffset" : 17080
        },
        {
            "buffer" : 0,
            "byteLength" : 17772,
            "byteOffset" : 17632
        },
        {
            "buffer" : 0,
            "byteLength" : 17772,
            "byteOffset" : 35404
        },
        {
            "buffer" : 0,
            "byteLength" : 11848,
            "byteOffset" : 53176
        },
        {
            "buffer" : 0,
            "byteLength" : 11976,
            "byteOffset" : 65024
        },
        {
            "buffer" : 0,
            "byteLength" : 108,
            "byteOffset" : 77000
        },
        {
            "buffer" : 0,
            "byteLength" : 108,
            "byteOffset" : 77108
        },
        {
            "buffer" : 0,
            "byteLength" : 72,
            "byteOffset" : 77216
        },
        {
            "buffer" : 0,
            "byteLength" : 48,
            "byteOffset" : 77288
        },
        {
            "buffer" : 0,
            "byteLength" : 96,
            "byteOffset" : 77336
        },
        {
            "buffer" : 0,
            "byteLength" : 96,
            "byteOffset" : 77432
        },
        {
            "buffer" : 0,
            "byteLength" : 64,
            "byteOffset" : 77528
        },
        {
            "buffer" : 0,
            "byteLength" : 36,
            "byteOffset" : 77592
        }
    ],
    "samplers" : [
        {
            "magFilter" : 9729,
            "minFilter" : 9987
        }
    ],
    "buffers" : [
        {
            "byteLength" : 77628,
            "uri" : "data:application/octet-stream;base64,"
        }
    ]
}
